<svg xmlns="http://www.w3.org/2000/svg" viewBox="0 0 1200 760" role="img" aria-labelledby="title desc">
  <title id="title">PC repair workbench illustration</title>
  <desc id="desc">A clean workbench with a laptop, SSD, memory modules, tools, and cleaning cloth.</desc>
  <defs>
    <linearGradient id="screen" x1="0" y1="0" x2="1" y2="1">
      <stop offset="0" stop-color="#2a2a2a"/>
      <stop offset="1" stop-color="#0f0f0f"/>
    </linearGradient>
    <linearGradient id="desk" x1="0" y1="0" x2="1" y2="1">
      <stop offset="0" stop-color="#f4f4f4"/>
      <stop offset="1" stop-color="#d8d8d8"/>
    </linearGradient>
  </defs>
  <rect width="1200" height="760" fill="#f6f6f6"/>
  <rect x="0" y="470" width="1200" height="290" fill="url(#desk)"/>
  <rect x="90" y="84" width="1020" height="500" rx="24" fill="#fff" stroke="#d6d6d6"/>
  <rect x="220" y="132" width="600" height="330" rx="18" fill="#222"/>
  <rect x="252" y="162" width="536" height="254" rx="10" fill="url(#screen)"/>
  <rect x="196" y="462" width="650" height="72" rx="16" fill="#242424"/>
  <rect x="254" y="486" width="530" height="20" rx="6" fill="#3b3b3b"/>
  <rect x="383" y="520" width="250" height="10" rx="5" fill="#111"/>
  <rect x="120" y="548" width="230" height="100" rx="16" fill="#b7c7d8"/>
  <path d="M130 584h210M132 616h205" stroke="#e7eef4" stroke-width="8" stroke-linecap="round"/>
  <rect x="420" y="580" width="150" height="74" rx="10" fill="#2f2f2f"/>
  <rect x="434" y="594" width="122" height="46" rx="6" fill="#4c4c4c"/>
  <path d="M438 650h118" stroke="#c9a341" stroke-width="8" stroke-linecap="round"/>
  <g transform="translate(620 570)">
    <rect width="190" height="42" rx="8" fill="#285238"/>
    <rect x="16" y="9" width="28" height="24" rx="4" fill="#202020"/>
    <rect x="54" y="9" width="28" height="24" rx="4" fill="#202020"/>
    <rect x="92" y="9" width="28" height="24" rx="4" fill="#202020"/>
    <rect x="130" y="9" width="28" height="24" rx="4" fill="#202020"/>
    <path d="M0 42h190" stroke="#c9a341" stroke-width="8"/>
  </g>
  <g transform="translate(620 630)">
    <rect width="170" height="38" rx="8" fill="#2f623f"/>
    <rect x="14" y="8" width="24" height="22" rx="4" fill="#202020"/>
    <rect x="48" y="8" width="24" height="22" rx="4" fill="#202020"/>
    <rect x="82" y="8" width="24" height="22" rx="4" fill="#202020"/>
    <rect x="116" y="8" width="24" height="22" rx="4" fill="#202020"/>
    <path d="M0 38h170" stroke="#c9a341" stroke-width="7"/>
  </g>
  <g transform="translate(855 546)">
    <rect width="230" height="124" rx="16" fill="#202020"/>
    <rect x="16" y="18" width="84" height="36" rx="6" fill="#3b3b3b"/>
    <rect x="116" y="18" width="96" height="36" rx="6" fill="#3b3b3b"/>
    <rect x="16" y="70" width="196" height="36" rx="6" fill="#3b3b3b"/>
    <path d="M32 88h158" stroke="#8f8f8f" stroke-width="6" stroke-linecap="round"/>
  </g>
  <g stroke="#303030" stroke-width="12" stroke-linecap="round">
    <path d="M900 330h170"/>
    <path d="M920 365h150"/>
    <path d="M940 400h120"/>
  </g>
  <g stroke="#9b9b9b" stroke-width="10" stroke-linecap="round">
    <path d="M910 330l34-28"/>
    <path d="M930 365l34-28"/>
    <path d="M950 400l34-28"/>
  </g>
  <circle cx="970" cy="170" r="60" fill="#e9e9e9" stroke="#d0d0d0"/>
  <path d="M970 126v88M926 170h88" stroke="#b6b6b6" stroke-width="10" stroke-linecap="round"/>
</svg>
